<svg xmlns="http://www.w3.org/2000/svg" version="1.1" xmlns:xlink="http://www.w3.org/1999/xlink" xmlns:svgjs="http://svgjs.dev/svgjs" width="1500" height="1500" viewBox="0 0 1500 1500"><rect width="1500" height="1500" fill="#000000"></rect><g transform="matrix(0.6666666666666666,0,0,0.6666666666666666,249.39393939393932,591.0415400650778)"><svg viewBox="0 0 396 126" data-background-color="#000000" preserveAspectRatio="xMidYMid meet" height="477" width="1500" xmlns="http://www.w3.org/2000/svg" xmlns:xlink="http://www.w3.org/1999/xlink"><g id="tight-bounds" transform="matrix(1,0,0,1,0.24000000000003752,-0.01645927106855538)"><svg viewBox="0 0 395.5199999999999 126.0329185421371" height="126.0329185421371" width="395.5199999999999"><g><svg viewBox="0 0 671.4930792062084 213.972068550781" height="126.0329185421371" width="395.5199999999999"><g transform="matrix(1,0,0,1,275.9730792062084,11.778149541612464)"><svg viewBox="0 0 395.52 190.41576946755606" height="190.41576946755606" width="395.52"><g id="textblocktransform"><svg viewBox="0 0 395.52 190.41576946755606" height="190.41576946755606" width="395.52" id="textblock"><g><svg viewBox="0 0 395.52 131.31578528827035" height="131.31578528827035" width="395.52"><g transform="matrix(1,0,0,1,0,0)"><svg width="395.52" viewBox="0.65 -33.4 100.58999999999999 33.4" height="131.31578528827035" data-palette-color="#00ffff"><path d="M21.6 0L18.65-9.15 6.45-9.15 3.55 0 0.65 0 10.55-30.65 16.65-30.65 26.55 0 21.6 0ZM7.25-11.6L17.85-11.6 12.55-28.25 7.25-11.6ZM50.75 0L45.3 0 37.9-11.15 36.15-9.25 36.15 0 31.1 0 31.1-31.7 36.15-32.35 36.15-12.3 47.1-24 50-24 41-14.45 50.75 0ZM67.65-24.6Q71.6-24.6 73.47-22.6 75.35-20.6 75.35-16.95L75.35-16.95 75.35 0 70.3 0 70.3-16.55Q70.3-19.2 69.35-20.5 68.4-21.8 66.35-21.8L66.35-21.8Q63.25-21.8 60.35-19.5L60.35-19.5 60.35 0 55.3 0 55.3-31.7 60.35-32.35 60.35-22.1Q61.95-23.25 63.85-23.93 65.75-24.6 67.65-24.6L67.65-24.6ZM85.54-27.15Q84.24-27.15 83.34-28.08 82.44-29 82.44-30.25L82.44-30.25Q82.44-31.55 83.34-32.48 84.24-33.4 85.54-33.4L85.54-33.4Q86.84-33.4 87.77-32.48 88.69-31.55 88.69-30.25L88.69-30.25Q88.69-29 87.74-28.08 86.79-27.15 85.54-27.15L85.54-27.15ZM87.94-24L87.94 0 82.99 0 82.99-24 87.94-24ZM101.24-32.35L101.24 0 96.19 0 96.19-31.7 101.24-32.35Z" opacity="1" transform="matrix(1,0,0,1,0,0)" fill="#ffffff" class="wordmark-text-0" data-fill-palette-color="primary" id="text-0"></path></svg></g></svg></g><g transform="matrix(1,0,0,1,0,162.31629061598406)"><svg viewBox="0 0 232.209792 28.09947885157202" height="28.09947885157202" width="232.209792"><g transform="matrix(1,0,0,1,0,0)"><svg width="232.209792" viewBox="1.15 -36.5 410.25 49.65" height="28.09947885157202" data-palette-color="#0fffff"><path d="M9.35-2.4L9.35-2.4Q9.4-2.15 10.13-1.9 10.85-1.65 11.75-1.5 12.65-1.35 13.15-1.3L13.15-1.3 13 0.15Q11.8 0.05 9.93 0.03 8.05 0 6.75 0L6.75 0Q5.5 0 3.93 0.03 2.35 0.05 1.15 0.15L1.15 0.15 1.3-1.3Q1.85-1.35 2.63-1.5 3.4-1.65 4.03-1.9 4.65-2.15 4.7-2.4L4.7-2.4Q4.7-2.4 4.78-3.2 4.85-4 4.93-5.98 5-7.95 5.05-11.45 5.1-14.95 5.1-20.3L5.1-20.3Q3.45-20.25 2.55-20.25 1.65-20.25 1.65-20.25L1.65-20.25 1.5-20.8 2.65-22.75Q2.65-22.75 3.23-22.7 3.8-22.65 5.05-22.55L5.05-22.55Q5.05-26 6.15-28.45 7.25-30.9 8.9-32.48 10.55-34.05 12.28-34.93 14-35.8 15.35-36.15 16.7-36.5 17.1-36.5L17.1-36.5Q17.35-36.5 17.88-35.98 18.4-35.45 18.93-34.65 19.45-33.85 19.65-33L19.65-33 18.9-32.05Q18.25-32.35 17.07-32.68 15.9-33 14.6-33L14.6-33Q13.2-33 11.88-32.23 10.55-31.45 9.7-29.23 8.85-27 8.85-22.6L8.85-22.6Q11.95-22.6 13.65-22.63 15.35-22.65 15.35-22.65L15.35-22.65 15.6-22.05 14.05-20.1Q14.05-20.1 12.78-20.18 11.5-20.25 8.85-20.3L8.85-20.3Q8.85-15.05 8.93-11.63 9-8.2 9.08-6.23 9.15-4.25 9.25-3.4 9.35-2.55 9.35-2.4ZM23.8-22.95L23.8-22.95 24.75-22.5Q24.7-21.95 24.67-20.83 24.65-19.7 24.65-18.4L24.65-18.4Q25.75-20.25 27.22-21.3 28.7-22.35 29.97-22.83 31.25-23.3 31.75-23.3L31.75-23.3Q32-23.3 32.52-22.78 33.05-22.25 33.57-21.45 34.1-20.65 34.3-19.8L34.3-19.8 33.55-18.85Q32.9-19.1 32-19.33 31.1-19.55 30.1-19.55L30.1-19.55Q28.8-19.55 27.55-18.93 26.3-18.3 25.47-16.82 24.65-15.35 24.65-12.7L24.65-12.7Q24.65-8.6 24.72-6.48 24.8-4.35 24.92-3.55 25.05-2.75 25.1-2.45L25.1-2.45Q25.2-2.05 26.6-1.73 28-1.4 29.4-1.3L29.4-1.3 29.25 0.15Q28.45 0.1 27.25 0.08 26.05 0.05 24.85 0.03 23.65 0 22.8 0L22.8 0Q21.55 0 19.92 0.03 18.3 0.05 17.1 0.15L17.1 0.15 17.25-1.3Q17.8-1.35 18.52-1.5 19.25-1.65 19.85-1.9 20.45-2.15 20.5-2.4L20.5-2.4Q20.5-2.4 20.6-3.15 20.7-3.9 20.8-5.85 20.9-7.8 20.9-11.45L20.9-11.45Q20.9-15.1 20.8-16.88 20.7-18.65 20.6-19.23 20.5-19.8 20.5-19.8L20.5-19.8 17.3-20.75 17.2-22.05Q18.1-22.05 19.32-22.18 20.55-22.3 21.75-22.53 22.95-22.75 23.8-22.95ZM57.9-12.15L57.9-12.15Q57.9-9.75 57.22-7.5 56.55-5.25 55.15-3.45 53.75-1.65 51.47-0.6 49.2 0.45 45.95 0.45L45.95 0.45Q40.35 0.45 37.85-2.53 35.35-5.5 35.35-10.3L35.35-10.3Q35.35-12.7 36.02-14.95 36.7-17.2 38.1-19.03 39.5-20.85 41.8-21.93 44.1-23 47.3-23L47.3-23Q51.05-23 53.37-21.63 55.7-20.25 56.8-17.8 57.9-15.35 57.9-12.15ZM53.6-10.3L53.6-10.3Q53.6-12.85 53.02-15.2 52.45-17.55 50.97-19.05 49.5-20.55 46.75-20.55L46.75-20.55Q44.55-20.55 43.15-19.53 41.75-18.5 41-17 40.25-15.5 39.95-14 39.65-12.5 39.65-11.5L39.65-11.5Q39.65-9.05 40.3-6.88 40.95-4.7 42.45-3.33 43.95-1.95 46.5-1.95L46.5-1.95Q48.5-1.95 49.87-2.83 51.25-3.7 52.07-5.05 52.9-6.4 53.25-7.83 53.6-9.25 53.6-10.3ZM67.59-22.95L67.59-22.95 68.54-22.5 68.54-20.1Q69.59-20.7 71.19-21.38 72.79-22.05 74.64-22.53 76.49-23 78.19-23L78.19-23Q80.34-23 81.82-21.98 83.29-20.95 83.29-18.25L83.29-18.25 83.29-11.45Q83.29-7.8 83.42-5.85 83.54-3.9 83.67-3.15 83.79-2.4 83.79-2.4L83.79-2.4Q83.84-2.15 84.42-1.9 84.99-1.65 85.74-1.5 86.49-1.35 86.99-1.3L86.99-1.3 86.84 0.15Q85.64 0.05 84.19 0.03 82.74 0 81.44 0L81.44 0Q80.19 0 78.62 0.03 77.04 0.05 75.84 0.15L75.84 0.15 75.99-1.3Q76.54-1.35 77.24-1.5 77.94-1.65 78.52-1.9 79.09-2.15 79.14-2.4L79.14-2.4Q79.14-2.4 79.24-3.15 79.34-3.9 79.44-5.85 79.54-7.8 79.54-11.45L79.54-11.45 79.54-16.7Q79.54-18.55 78.47-19.23 77.39-19.9 75.79-19.9L75.79-19.9Q74.54-19.9 73.17-19.58 71.79-19.25 70.54-18.85 69.29-18.45 68.49-18.1L68.49-18.1Q68.49-16.85 68.47-15.25 68.44-13.65 68.44-11.45L68.44-11.45Q68.44-7.8 68.57-5.85 68.69-3.9 68.82-3.15 68.94-2.4 68.94-2.4L68.94-2.4Q68.99-2.15 69.57-1.9 70.14-1.65 70.89-1.5 71.64-1.35 72.14-1.3L72.14-1.3 71.99 0.15Q70.79 0.05 69.34 0.03 67.89 0 66.59 0L66.59 0Q65.34 0 63.77 0.03 62.19 0.05 60.99 0.15L60.99 0.15 61.14-1.3Q61.69-1.35 62.39-1.5 63.09-1.65 63.67-1.9 64.24-2.15 64.29-2.4L64.29-2.4Q64.29-2.4 64.39-3.15 64.49-3.9 64.59-5.85 64.69-7.8 64.69-11.45L64.69-11.45Q64.69-15.1 64.59-16.88 64.49-18.65 64.39-19.23 64.29-19.8 64.29-19.8L64.29-19.8 61.09-20.75 60.99-22.05Q61.89-22.05 63.12-22.18 64.34-22.3 65.54-22.53 66.74-22.75 67.59-22.95ZM103.39-3.55L103.39-3.55 103.99-1.9Q102.29-0.8 100.74-0.18 99.19 0.45 97.59 0.45L97.59 0.45Q95.44 0.45 93.92-0.6 92.39-1.65 92.39-4.55L92.39-4.55Q92.39-4.55 92.42-5.78 92.44-7 92.44-8.78 92.44-10.55 92.44-12.15L92.44-12.15Q92.44-14.65 92.42-16.73 92.39-18.8 92.34-20.3L92.34-20.3Q90.84-20.25 89.99-20.25 89.14-20.25 89.14-20.25L89.14-20.25 88.99-20.8 90.14-22.75Q90.14-22.75 90.67-22.68 91.19-22.6 92.24-22.55L92.24-22.55Q92.24-23.55 92.19-24.63 92.14-25.7 92.09-26.43 92.04-27.15 92.04-27.15L92.04-27.15 95.34-30.1 96.29-29.65Q96.29-29.65 96.27-28.58 96.24-27.5 96.22-25.9 96.19-24.3 96.19-22.6L96.19-22.6Q99.59-22.6 101.56-22.63 103.54-22.65 103.54-22.65L103.54-22.65 103.79-22.05 101.99-20.05Q101.99-20.05 100.64-20.15 99.29-20.25 96.19-20.3L96.19-20.3 96.19-13.6Q96.19-10.6 96.22-8.65 96.24-6.7 96.34-4.65L96.34-4.65Q96.44-3.4 97.19-2.9 97.94-2.4 98.99-2.4L98.99-2.4Q100.14-2.4 101.37-2.8 102.59-3.2 103.39-3.55ZM136.84-4.15L136.84-4.15 137.44-2.65Q135.88-1.4 133.81-0.48 131.74 0.45 129.24 0.45L129.24 0.45Q125.53 0.45 123.16-1.03 120.78-2.5 119.66-4.95 118.53-7.4 118.53-10.35L118.53-10.35Q118.53-12.75 119.21-15 119.89-17.25 121.28-19.05 122.69-20.85 124.98-21.93 127.28-23 130.49-23L130.49-23Q132.28-23 134.03-22.15 135.78-21.3 136.94-19.43 138.09-17.55 138.09-14.45L138.09-14.45 136.38-12.4Q136.19-12.45 135.71-12.45 135.24-12.45 134.53-12.45L134.53-12.45Q133.28-12.45 131.59-12.43 129.88-12.4 128.13-12.35 126.39-12.3 124.94-12.23 123.48-12.15 122.78-12.1L122.78-12.1 122.78-11.65Q122.78-6.95 124.76-4.75 126.73-2.55 129.88-2.55L129.88-2.55Q131.74-2.55 133.38-2.95 135.03-3.35 136.84-4.15ZM133.59-16L133.59-16Q133.59-17.7 132.91-18.68 132.24-19.65 131.26-20.1 130.28-20.55 129.38-20.55L129.38-20.55Q126.94-20.55 125.28-18.63 123.64-16.7 123.09-14.15L123.09-14.15 133.44-14.55Q133.59-15.3 133.59-16ZM147.38-22.95L147.38-22.95 148.33-22.5 148.33-20.1Q149.38-20.7 150.98-21.38 152.58-22.05 154.43-22.53 156.28-23 157.98-23L157.98-23Q160.13-23 161.61-21.98 163.08-20.95 163.08-18.25L163.08-18.25 163.08-11.45Q163.08-7.8 163.21-5.85 163.33-3.9 163.46-3.15 163.58-2.4 163.58-2.4L163.58-2.4Q163.63-2.15 164.21-1.9 164.78-1.65 165.53-1.5 166.28-1.35 166.78-1.3L166.78-1.3 166.63 0.15Q165.43 0.05 163.98 0.03 162.53 0 161.23 0L161.23 0Q159.98 0 158.41 0.03 156.83 0.05 155.63 0.15L155.63 0.15 155.78-1.3Q156.33-1.35 157.03-1.5 157.73-1.65 158.31-1.9 158.88-2.15 158.93-2.4L158.93-2.4Q158.93-2.4 159.03-3.15 159.13-3.9 159.23-5.85 159.33-7.8 159.33-11.45L159.33-11.45 159.33-16.7Q159.33-18.55 158.26-19.23 157.18-19.9 155.58-19.9L155.58-19.9Q154.33-19.9 152.96-19.58 151.58-19.25 150.33-18.85 149.08-18.45 148.28-18.1L148.28-18.1Q148.28-16.85 148.26-15.25 148.23-13.65 148.23-11.45L148.23-11.45Q148.23-7.8 148.36-5.85 148.48-3.9 148.61-3.15 148.73-2.4 148.73-2.4L148.73-2.4Q148.78-2.15 149.36-1.9 149.93-1.65 150.68-1.5 151.43-1.35 151.93-1.3L151.93-1.3 151.78 0.15Q150.58 0.05 149.13 0.03 147.68 0 146.38 0L146.38 0Q145.13 0 143.56 0.03 141.98 0.05 140.78 0.15L140.78 0.15 140.93-1.3Q141.48-1.35 142.18-1.5 142.88-1.65 143.46-1.9 144.03-2.15 144.08-2.4L144.08-2.4Q144.08-2.4 144.18-3.15 144.28-3.9 144.38-5.85 144.48-7.8 144.48-11.45L144.48-11.45Q144.48-15.1 144.38-16.88 144.28-18.65 144.18-19.23 144.08-19.8 144.08-19.8L144.08-19.8 140.88-20.75 140.78-22.05Q141.68-22.05 142.91-22.18 144.13-22.3 145.33-22.53 146.53-22.75 147.38-22.95ZM186.48-2.8L186.48-2.8Q184.73-1.15 182.7-0.35 180.68 0.45 178.78 0.45L178.78 0.45Q176.28 0.45 174.18-0.83 172.08-2.1 170.83-4.63 169.58-7.15 169.58-10.85L169.58-10.85Q169.58-14.85 171.08-17.55 172.58-20.25 175.06-21.65 177.53-23.05 180.43-23.05L180.43-23.05Q182.03-23.05 183.38-22.68 184.73-22.3 186.43-21.3L186.43-21.3Q186.43-25.2 186.35-27.6 186.28-30 186.2-31.23 186.13-32.45 186.08-32.9 186.03-33.35 186.03-33.35L186.03-33.35 182.83-34.3 182.73-35.6Q183.63-35.6 184.85-35.73 186.08-35.85 187.28-36.08 188.48-36.3 189.33-36.5L189.33-36.5 190.28-36.05Q190.28-36.05 190.23-31.4 190.18-26.75 190.18-17.6L190.18-17.6Q190.18-11.55 190.23-8.55 190.28-5.55 190.33-4.25L190.33-4.25Q190.38-3.35 190.98-2.9 191.58-2.45 192.43-2.33 193.28-2.2 194.13-2.15L194.13-2.15 193.98-0.7Q192.63-0.6 191.23-0.33 189.83-0.05 188.53 0.2L188.53 0.2Q188.53 0.2 187.7-0.43 186.88-1.05 186.48-2.8ZM186.43-19.1L186.43-19.1Q185.13-19.55 184-19.78 182.88-20 181.73-20L181.73-20Q178.93-20 177.23-18.7 175.53-17.4 174.78-15.35 174.03-13.3 174.03-10.95L174.03-10.95Q174.03-7.45 175.6-5.08 177.18-2.7 180.53-2.7L180.53-2.7Q182.28-2.7 183.83-3.4 185.38-4.1 186.18-4.7L186.18-4.7Q186.23-5.5 186.28-7.68 186.33-9.85 186.38-12.85 186.43-15.85 186.43-19.1ZM226.17-2.8L226.17-2.8Q224.42-1.15 222.4-0.35 220.38 0.45 218.47 0.45L218.47 0.45Q215.97 0.45 213.88-0.83 211.77-2.1 210.52-4.63 209.27-7.15 209.27-10.85L209.27-10.85Q209.27-14.85 210.77-17.55 212.27-20.25 214.75-21.65 217.22-23.05 220.13-23.05L220.13-23.05Q221.72-23.05 223.07-22.68 224.42-22.3 226.13-21.3L226.13-21.3Q226.13-25.2 226.05-27.6 225.97-30 225.9-31.23 225.82-32.45 225.77-32.9 225.72-33.35 225.72-33.35L225.72-33.35 222.52-34.3 222.42-35.6Q223.32-35.6 224.55-35.73 225.77-35.85 226.97-36.08 228.17-36.3 229.02-36.5L229.02-36.5 229.97-36.05Q229.97-36.05 229.92-31.4 229.88-26.75 229.88-17.6L229.88-17.6Q229.88-11.55 229.92-8.55 229.97-5.55 230.02-4.25L230.02-4.25Q230.07-3.35 230.67-2.9 231.27-2.45 232.13-2.33 232.97-2.2 233.82-2.15L233.82-2.15 233.67-0.7Q232.32-0.6 230.92-0.33 229.52-0.05 228.22 0.2L228.22 0.2Q228.22 0.2 227.4-0.43 226.57-1.05 226.17-2.8ZM226.13-19.1L226.13-19.1Q224.82-19.55 223.7-19.78 222.57-20 221.42-20L221.42-20Q218.63-20 216.92-18.7 215.22-17.4 214.47-15.35 213.72-13.3 213.72-10.95L213.72-10.95Q213.72-7.45 215.3-5.08 216.88-2.7 220.22-2.7L220.22-2.7Q221.97-2.7 223.52-3.4 225.07-4.1 225.88-4.7L225.88-4.7Q225.92-5.5 225.97-7.68 226.02-9.85 226.07-12.85 226.13-15.85 226.13-19.1ZM254.67-4.15L254.67-4.15 255.27-2.65Q253.72-1.4 251.65-0.48 249.57 0.45 247.07 0.45L247.07 0.45Q243.37 0.45 241-1.03 238.62-2.5 237.5-4.95 236.37-7.4 236.37-10.35L236.37-10.35Q236.37-12.75 237.05-15 237.72-17.25 239.12-19.05 240.52-20.85 242.82-21.93 245.12-23 248.32-23L248.32-23Q250.12-23 251.87-22.15 253.62-21.3 254.77-19.43 255.92-17.55 255.92-14.45L255.92-14.45 254.22-12.4Q254.02-12.45 253.55-12.45 253.07-12.45 252.37-12.45L252.37-12.45Q251.12-12.45 249.42-12.43 247.72-12.4 245.97-12.35 244.22-12.3 242.77-12.23 241.32-12.15 240.62-12.1L240.62-12.1 240.62-11.65Q240.62-6.95 242.6-4.75 244.57-2.55 247.72-2.55L247.72-2.55Q249.57-2.55 251.22-2.95 252.87-3.35 254.67-4.15ZM251.42-16L251.42-16Q251.42-17.7 250.75-18.68 250.07-19.65 249.1-20.1 248.12-20.55 247.22-20.55L247.22-20.55Q244.77-20.55 243.12-18.63 241.47-16.7 240.92-14.15L240.92-14.15 251.27-14.55Q251.42-15.3 251.42-16ZM264.07-19.85L264.07-19.85Q264.07-19.65 265.54-15.48 267.02-11.3 269.47-3.3L269.47-3.3Q272.12-11.4 273.52-15.53 274.92-19.65 274.92-19.9L274.92-19.9Q274.92-21 272.17-21.35L272.17-21.35 272.02-22.8Q272.02-22.8 273.12-22.73 274.22-22.65 275.62-22.65L275.62-22.65Q276.57-22.65 277.74-22.7 278.92-22.75 279.82-22.78 280.72-22.8 280.72-22.8L280.72-22.8 280.87-21.35Q279.12-21.1 278.52-20.63 277.92-20.15 277.67-19.35L277.67-19.35 270.87 0 267.12 0.45 260.27-19.3Q260.07-19.85 259.47-20.48 258.87-21.1 257.22-21.35L257.22-21.35 257.07-22.8Q257.07-22.8 257.97-22.78 258.87-22.75 260.07-22.7 261.27-22.65 262.17-22.65L262.17-22.65Q263.12-22.65 264.27-22.7 265.42-22.75 266.24-22.78 267.07-22.8 267.07-22.8L267.07-22.8 267.22-21.35Q265.57-21.15 264.82-20.7 264.07-20.25 264.07-19.85ZM299.82-4.15L299.82-4.15 300.42-2.65Q298.87-1.4 296.79-0.48 294.72 0.45 292.22 0.45L292.22 0.45Q288.52 0.45 286.14-1.03 283.77-2.5 282.64-4.95 281.52-7.4 281.52-10.35L281.52-10.35Q281.52-12.75 282.19-15 282.87-17.25 284.27-19.05 285.67-20.85 287.97-21.93 290.27-23 293.47-23L293.47-23Q295.27-23 297.02-22.15 298.77-21.3 299.92-19.43 301.07-17.55 301.07-14.45L301.07-14.45 299.37-12.4Q299.17-12.45 298.69-12.45 298.22-12.45 297.52-12.45L297.52-12.45Q296.27-12.45 294.57-12.43 292.87-12.4 291.12-12.35 289.37-12.3 287.92-12.23 286.47-12.15 285.77-12.1L285.77-12.1 285.77-11.65Q285.77-6.95 287.74-4.75 289.72-2.55 292.87-2.55L292.87-2.55Q294.72-2.55 296.37-2.95 298.02-3.35 299.82-4.15ZM296.57-16L296.57-16Q296.57-17.7 295.89-18.68 295.22-19.65 294.24-20.1 293.27-20.55 292.37-20.55L292.37-20.55Q289.92-20.55 288.27-18.63 286.62-16.7 286.07-14.15L286.07-14.15 296.42-14.55Q296.57-15.3 296.57-16ZM311.26-17.6L311.26-17.6Q311.26-13.1 311.34-10.25 311.41-7.4 311.51-5.75 311.61-4.1 311.69-3.38 311.76-2.65 311.81-2.4L311.81-2.4Q311.86-2.15 312.51-1.9 313.16-1.65 313.99-1.5 314.81-1.35 315.31-1.3L315.31-1.3 315.16 0.15Q313.96 0.05 312.36 0.03 310.76 0 309.46 0L309.46 0Q308.21 0 306.49 0.03 304.76 0.05 303.56 0.15L303.56 0.15 303.71-1.3Q304.26-1.35 305.04-1.5 305.81-1.65 306.46-1.9 307.11-2.15 307.16-2.4L307.16-2.4Q307.16-2.4 307.21-3.13 307.26-3.85 307.34-5.63 307.41-7.4 307.46-10.53 307.51-13.65 307.51-18.5L307.51-18.5Q307.51-23.3 307.46-26.25 307.41-29.2 307.31-30.75 307.21-32.3 307.16-32.83 307.11-33.35 307.11-33.35L307.11-33.35 303.91-34.3 303.81-35.6Q304.71-35.6 305.94-35.73 307.16-35.85 308.36-36.08 309.56-36.3 310.41-36.5L310.41-36.5 311.36-36.05Q311.36-36.05 311.31-31.4 311.26-26.75 311.26-17.6ZM340.71-12.15L340.71-12.15Q340.71-9.75 340.04-7.5 339.36-5.25 337.96-3.45 336.56-1.65 334.29-0.6 332.01 0.45 328.76 0.45L328.76 0.45Q323.16 0.45 320.66-2.53 318.16-5.5 318.16-10.3L318.16-10.3Q318.16-12.7 318.84-14.95 319.51-17.2 320.91-19.03 322.31-20.85 324.61-21.93 326.91-23 330.11-23L330.11-23Q333.86-23 336.19-21.63 338.51-20.25 339.61-17.8 340.71-15.35 340.71-12.15ZM336.41-10.3L336.41-10.3Q336.41-12.85 335.84-15.2 335.26-17.55 333.79-19.05 332.31-20.55 329.56-20.55L329.56-20.55Q327.36-20.55 325.96-19.53 324.56-18.5 323.81-17 323.06-15.5 322.76-14 322.46-12.5 322.46-11.5L322.46-11.5Q322.46-9.05 323.11-6.88 323.76-4.7 325.26-3.33 326.76-1.95 329.31-1.95L329.31-1.95Q331.31-1.95 332.69-2.83 334.06-3.7 334.89-5.05 335.71-6.4 336.06-7.83 336.41-9.25 336.41-10.3ZM350.86-1.15L350.86-1.15Q350.91 3.55 350.96 6.1 351.01 8.65 351.08 9.65 351.16 10.65 351.16 10.75L351.16 10.75Q351.21 11 351.86 11.2 352.51 11.4 353.33 11.53 354.16 11.65 354.66 11.7L354.66 11.7 354.51 13.15Q353.31 13.05 351.71 13.03 350.11 13 348.81 13L348.81 13Q347.56 13 345.83 13.03 344.11 13.05 342.91 13.15L342.91 13.15 343.06 11.7Q343.61 11.65 344.38 11.53 345.16 11.4 345.81 11.2 346.46 11 346.51 10.75L346.51 10.75Q346.51 10.75 346.61 10.1 346.71 9.45 346.81 7.75 346.91 6.05 347.01 2.98 347.11-0.1 347.11-4.9L347.11-4.9Q347.11-9.75 347.06-12.7 347.01-15.65 346.91-17.2 346.81-18.75 346.76-19.28 346.71-19.8 346.71-19.8L346.71-19.8 343.51-20.75 343.41-22.05Q344.76-22.05 346.73-22.33 348.71-22.6 349.96-22.95L349.96-22.95 350.91-22.5 350.91-20.05Q352.81-21.5 354.93-22.25 357.06-23 359.06-23L359.06-23Q361.46-23 363.46-21.88 365.46-20.75 366.68-18.38 367.91-16 367.91-12.15L367.91-12.15Q367.91-7.85 366.46-5.05 365.01-2.25 362.56-0.9 360.11 0.45 357.06 0.45L357.06 0.45Q355.51 0.45 353.93 0.05 352.36-0.35 350.86-1.15ZM350.86-18.3L350.86-18.3 350.86-3.05Q352.16-2.6 353.31-2.4 354.46-2.2 355.46-2.2L355.46-2.2Q358.61-2.2 360.38-3.63 362.16-5.05 362.91-7.28 363.66-9.5 363.66-11.85L363.66-11.85Q363.66-15.4 362.21-17.63 360.76-19.85 357.06-19.85L357.06-19.85Q355.31-19.85 353.51-19.35 351.71-18.85 350.86-18.3ZM390.11-4.15L390.11-4.15 390.71-2.65Q389.16-1.4 387.08-0.48 385.01 0.45 382.51 0.45L382.51 0.45Q378.81 0.45 376.43-1.03 374.06-2.5 372.93-4.95 371.81-7.4 371.81-10.35L371.81-10.35Q371.81-12.75 372.48-15 373.16-17.25 374.56-19.05 375.96-20.85 378.26-21.93 380.56-23 383.76-23L383.76-23Q385.56-23 387.31-22.15 389.06-21.3 390.21-19.43 391.36-17.55 391.36-14.45L391.36-14.45 389.66-12.4Q389.46-12.45 388.98-12.45 388.51-12.45 387.81-12.45L387.81-12.45Q386.56-12.45 384.86-12.43 383.16-12.4 381.41-12.35 379.66-12.3 378.21-12.23 376.76-12.15 376.06-12.1L376.06-12.1 376.06-11.65Q376.06-6.95 378.03-4.75 380.01-2.55 383.16-2.55L383.16-2.55Q385.01-2.55 386.66-2.95 388.31-3.35 390.11-4.15ZM386.86-16L386.86-16Q386.86-17.7 386.18-18.68 385.51-19.65 384.53-20.1 383.56-20.55 382.66-20.55L382.66-20.55Q380.21-20.55 378.56-18.63 376.91-16.7 376.36-14.15L376.36-14.15 386.71-14.55Q386.86-15.3 386.86-16ZM400.9-22.95L400.9-22.95 401.85-22.5Q401.8-21.95 401.78-20.83 401.75-19.7 401.75-18.4L401.75-18.4Q402.85-20.25 404.33-21.3 405.8-22.35 407.08-22.83 408.35-23.3 408.85-23.3L408.85-23.3Q409.1-23.3 409.63-22.78 410.15-22.25 410.68-21.45 411.2-20.65 411.4-19.8L411.4-19.8 410.65-18.85Q410-19.1 409.1-19.33 408.2-19.55 407.2-19.55L407.2-19.55Q405.9-19.55 404.65-18.93 403.4-18.3 402.58-16.82 401.75-15.35 401.75-12.7L401.75-12.7Q401.75-8.6 401.83-6.48 401.9-4.35 402.03-3.55 402.15-2.75 402.2-2.45L402.2-2.45Q402.3-2.05 403.7-1.73 405.1-1.4 406.5-1.3L406.5-1.3 406.35 0.15Q405.55 0.1 404.35 0.08 403.15 0.05 401.95 0.03 400.75 0 399.9 0L399.9 0Q398.65 0 397.03 0.03 395.4 0.05 394.2 0.15L394.2 0.15 394.35-1.3Q394.9-1.35 395.63-1.5 396.35-1.65 396.95-1.9 397.55-2.15 397.6-2.4L397.6-2.4Q397.6-2.4 397.7-3.15 397.8-3.9 397.9-5.85 398-7.8 398-11.45L398-11.45Q398-15.1 397.9-16.88 397.8-18.65 397.7-19.23 397.6-19.8 397.6-19.8L397.6-19.8 394.4-20.75 394.3-22.05Q395.2-22.05 396.43-22.18 397.65-22.3 398.85-22.53 400.05-22.75 400.9-22.95Z" opacity="1" transform="matrix(1,0,0,1,0,0)" fill="#ffffff" class="slogan-text-1" data-fill-palette-color="secondary" id="text-1"></path></svg></g></svg></g></svg></g></svg></g><g><svg viewBox="0 0 213.972068550781 213.972068550781" height="213.972068550781" width="213.972068550781"><g><svg></svg></g><g id="icon-0"><svg viewBox="0 0 213.972068550781 213.972068550781" height="213.972068550781" width="213.972068550781"><g><path d="M0 106.986c0-59.087 47.899-106.986 106.986-106.986 59.087 0 106.986 47.899 106.986 106.986 0 59.087-47.899 106.986-106.986 106.986-59.087 0-106.986-47.899-106.986-106.986zM106.986 202.13c52.546 0 95.144-42.597 95.144-95.144 0-52.546-42.597-95.144-95.144-95.144-52.546 0-95.144 42.597-95.144 95.144 0 52.546 42.597 95.144 95.144 95.144z" data-fill-palette-color="accent" fill="#ffffff" stroke="transparent"></path></g><g transform="matrix(1,0,0,1,57.3341154385551,82.35492008440723)"><svg viewBox="0 0 99.30383767367078 49.26222838196654" height="49.26222838196654" width="99.30383767367078"><g><svg xmlns="http://www.w3.org/2000/svg" xmlns:xlink="http://www.w3.org/1999/xlink" version="1.1" x="0" y="0" viewBox="183 -40.29999941143039 369.5 183.2999994114304" enable-background="new 159 -158 417 417" xml:space="preserve" height="49.26222838196654" width="99.30383767367078" class="icon-cg-0" data-fill-palette-color="accent" id="cg-0"><circle cx="367.5" cy="-25.1" r="15" fill="#ffffff" data-fill-palette-color="accent"></circle><path d="M381.8 14.1l19.1 47.3 14.2-5.7L392.2-1.1c-1.2-2.9-4-4.8-7.1-4.8h-8.5-6.7-0.1-4.5-0.1-6.7-8.5c-3.1 0-5.9 1.9-7.1 4.8l-22.9 56.8 14.2 5.7 19.1-47.3 2.4 1L329.8 84h20.6l11.1 59h3.6 4.5 3.6l11.1-59h20.6l-25.7-68.9L381.8 14.1z" fill="#ffffff" data-fill-palette-color="accent"></path><polygon points="552.5,37.1 446.5,-10.1 446.5,16.7 522,50 446.5,83.8 446.5,110.6 552.5,63.9 " fill="#ffffff" data-fill-palette-color="accent"></polygon><polygon points="183,63.9 289,110.6 289,83.8 213.5,50 289,16.7 289,-10.1 183,37.1 " fill="#ffffff" data-fill-palette-color="accent"></polygon></svg></g></svg></g></svg></g></svg></g></svg></g><defs></defs></svg><rect width="395.5199999999999" height="126.0329185421371" fill="none" stroke="none" visibility="hidden"></rect></g></svg></g></svg>